# xmcd
#
# Track frame offsets:
#	150
#	12521
#	26473
#	43203
#	56110
#	69017
#	85168
#	98500
#	111814
#	128062
#	143812
#	154442
#	169315
#	184448
#	197510
#	208643
#	221544
#	234796
#	249235
#	264789
#
# Disc length: 3695 seconds
#
# Revision: 0
# Processed by: cddbd v1.5.2PL0 Copyright (c) Steve Scherf et al.
# Submitted via: audiograbber 1.83.01
#
DISCID=0f0e6d14
DTITLE=Tom Astor - Highway Dreams - 40 Diesel Country Songs CD 1
DYEAR=2011
DGENRE=Country
TTITLE0=Lass Dich Nie Ganz Unterkriegen
TTITLE1=Morgensonne
TTITLE2=Wir Nannten Ihn Jim Small
TTITLE3=Kleiner Streuner
TTITLE4=Seit Wir Zwei Zusammen Fahren
TTITLE5=Alaska Highway
TTITLE6=Ja, Dann Gibt's Chaos
TTITLE7=Morgen Fahr Ich Nach Louisiana
TTITLE8=Geistertruck 2
TTITLE9=Geh Nie Auf Den Bock (Such Dir'nen Besseren Job)
TTITLE10=Wir Sind Zwei Gute Freunde
TTITLE11=Egal Ob Kopf Oder Zahl
TTITLE12=Bei Dir Brennt Noch Licht
TTITLE13=Ich Nehm' Mir Zeit
TTITLE14=Ein Paar Narben Auf Der Seele
TTITLE15=Noch 100 Kilometer
TTITLE16=Alle Strassen Dieser Welt
TTITLE17=Ich Bin Ein Einfacher Mann
TTITLE18=Ein Lied Fuer Louise
TTITLE19=Heisses Eis
EXTD=
EXTT0=
EXTT1=
EXTT2=
EXTT3=
EXTT4=
EXTT5=
EXTT6=
EXTT7=
EXTT8=
EXTT9=
EXTT10=
EXTT11=
EXTT12=
EXTT13=
EXTT14=
EXTT15=
EXTT16=
EXTT17=
EXTT18=
EXTT19=
PLAYORDER=
